<svg width="38" height="38" viewBox="0 0 38 38" fill="none" xmlns="http://www.w3.org/2000/svg">
<path d="M20.6277 3.16666C22.4089 3.17141 23.313 3.18091 24.0936 3.20307L24.4008 3.21416C24.7554 3.22682 25.1053 3.24266 25.5281 3.26166C27.2128 3.34082 28.3623 3.60682 29.3709 3.99791C30.4159 4.40007 31.2962 4.94474 32.1765 5.82349C32.9816 6.61499 33.6046 7.57242 34.0021 8.62916C34.3932 9.63774 34.6592 10.7872 34.7384 12.4735C34.7574 12.8947 34.7732 13.2446 34.7859 13.6008L34.7954 13.908C34.8191 14.687 34.8286 15.5911 34.8318 17.3723L34.8334 18.5535V20.6277C34.8372 21.7825 34.8251 22.9374 34.7969 24.092L34.7874 24.3992C34.7748 24.7554 34.7589 25.1053 34.7399 25.5265C34.6608 27.2127 34.3916 28.3607 34.0021 29.3708C33.6058 30.4281 32.9826 31.3858 32.1765 32.1765C31.3848 32.9813 30.4274 33.6043 29.3709 34.0021C28.3623 34.3932 27.2128 34.6592 25.5281 34.7383C25.1524 34.756 24.7766 34.7718 24.4008 34.7858L24.0936 34.7953C23.313 34.8175 22.4089 34.8286 20.6277 34.8317L19.4465 34.8333H17.3739C16.2185 34.8373 15.0631 34.8252 13.908 34.7969L13.6009 34.7874C13.225 34.7732 12.8492 34.7568 12.4735 34.7383C10.7889 34.6592 9.63935 34.3932 8.62918 34.0021C7.57258 33.6052 6.61553 32.9822 5.8251 32.1765C5.01926 31.3853 4.39571 30.4278 3.99794 29.3708C3.60685 28.3622 3.34085 27.2127 3.26168 25.5265C3.24404 25.1508 3.22821 24.775 3.21419 24.3992L3.20627 24.092C3.17709 22.9375 3.1639 21.7826 3.16669 20.6277V17.3723C3.16227 16.2174 3.17388 15.0626 3.20152 13.908L3.2126 13.6008C3.22527 13.2446 3.2411 12.8947 3.2601 12.4735C3.33927 10.7872 3.60527 9.63932 3.99635 8.62916C4.39395 7.57134 5.01874 6.61361 5.82668 5.82349C6.61691 5.01832 7.57333 4.3953 8.62918 3.99791C9.63935 3.60682 10.7873 3.34082 12.4735 3.26166C12.8947 3.24266 13.2462 3.22682 13.6009 3.21416L13.908 3.20466C15.0626 3.17652 16.2175 3.16438 17.3724 3.16824L20.6277 3.16666ZM19 11.0833C16.9004 11.0833 14.8868 11.9174 13.4021 13.4021C11.9174 14.8867 11.0834 16.9004 11.0834 19C11.0834 21.0996 11.9174 23.1133 13.4021 24.5979C14.8868 26.0826 16.9004 26.9167 19 26.9167C21.0996 26.9167 23.1133 26.0826 24.5979 24.5979C26.0826 23.1133 26.9167 21.0996 26.9167 19C26.9167 16.9004 26.0826 14.8867 24.5979 13.4021C23.1133 11.9174 21.0996 11.0833 19 11.0833ZM19 14.25C19.6238 14.2499 20.2415 14.3726 20.8178 14.6113C21.3942 14.8499 21.9179 15.1997 22.359 15.6407C22.8002 16.0817 23.1501 16.6053 23.3889 17.1815C23.6277 17.7578 23.7507 18.3754 23.7508 18.9992C23.7509 19.623 23.6282 20.2407 23.3895 20.817C23.1509 21.3933 22.8011 21.917 22.3601 22.3582C21.9191 22.7993 21.3955 23.1493 20.8193 23.3881C20.243 23.6269 19.6254 23.7499 19.0016 23.75C17.7418 23.75 16.5336 23.2495 15.6428 22.3587C14.752 21.468 14.2516 20.2598 14.2516 19C14.2516 17.7402 14.752 16.532 15.6428 15.6412C16.5336 14.7504 17.7418 14.25 19.0016 14.25M27.3141 8.70832C26.7892 8.70832 26.2858 8.91684 25.9146 9.28801C25.5435 9.65917 25.3349 10.1626 25.3349 10.6875C25.3349 11.2124 25.5435 11.7158 25.9146 12.087C26.2858 12.4581 26.7892 12.6667 27.3141 12.6667C27.839 12.6667 28.3424 12.4581 28.7136 12.087C29.0848 11.7158 29.2933 11.2124 29.2933 10.6875C29.2933 10.1626 29.0848 9.65917 28.7136 9.28801C28.3424 8.91684 27.839 8.70832 27.3141 8.70832Z" fill="#727272"/>
</svg>
