<svg width="39" height="39" viewBox="0 0 39 39" fill="none" xmlns="http://www.w3.org/2000/svg">
<path d="M17.8169 31.8093L17.8155 31.808C13.6115 27.9958 10.2025 24.8984 7.83286 21.9993C5.47421 19.1137 4.25 16.5469 4.25 13.8125C4.25 9.34473 7.73359 5.875 12.1875 5.875C14.7127 5.875 17.1529 7.05571 18.7412 8.90628L19.5 9.79043L20.2588 8.90628C21.8471 7.05571 24.2873 5.875 26.8125 5.875C31.2664 5.875 34.75 9.34473 34.75 13.8125C34.75 16.5469 33.5258 19.1137 31.1671 21.9993C28.7975 24.8984 25.3885 27.9958 21.1845 31.808L21.1831 31.8093L19.5 33.3414L17.8169 31.8093Z" fill="#F6F6F6" stroke="#404040" stroke-width="2"/>
</svg>
