<svg width="150" height="150" viewBox="0 0 150 150" fill="none" xmlns="http://www.w3.org/2000/svg">
<mask id="mask0_72_6" style="mask-type:alpha" maskUnits="userSpaceOnUse" x="0" y="0" width="150" height="150">
<path d="M69 3L21 126C21 126 52.6422 66 68.8242 66C68.9592 66 69.0877 66.0086 69.2227 66.0176C86.0527 67.2026 117 126 117 126L69 3ZM81 3L78.2168 10.1191L112.629 98.291C121.884 112.49 129 126 129 126L81 3ZM39.2344 62.7656L15 87L25.6289 97.6289L39.2344 62.7656ZM110.766 62.7656L124.371 97.6289L135 87L110.766 62.7656ZM68.8066 72C64.3456 72 53.9829 83.891 42.8379 100.793L33 126C33 126 53.2818 87.5645 69.6738 72.2285C69.3828 72.1505 69.0706 72.018 68.8066 72ZM74.9473 75.5098L73.7695 76.6055C63.8335 85.8995 52.1143 104.635 44.9473 116.947L75 147L105.094 116.906L105.088 116.9C94.8159 99.2154 82.9963 82.5328 74.9473 75.5098Z" fill="black"/>
</mask>
<g mask="url(#mask0_72_6)">
<rect x="-63" y="-67" width="242" height="225" fill="#F6F6F6"/>
</g>
</svg>
