<svg width="528" height="867" viewBox="0 0 528 867" fill="none" xmlns="http://www.w3.org/2000/svg">
<g opacity="0.2" clip-path="url(#clip0_160_72)">
<path d="M0.276191 144.363L72.0022 180.909L144.184 157.456L287.636 230.549L311.089 302.73L382.815 339.276C395.497 345.738 405.093 356.973 409.491 370.51C413.889 384.046 412.73 398.776 406.268 411.458L260.083 698.362C253.621 711.044 242.386 720.639 228.85 725.038C215.313 729.436 200.584 728.277 187.902 721.815L-194.637 526.902C-207.319 520.44 -216.915 509.205 -221.313 495.668C-225.711 482.132 -224.552 467.402 -218.09 454.72L-71.9053 167.816C-65.4435 155.134 -54.2085 145.539 -40.6719 141.14C-27.1352 136.742 -12.4058 137.901 0.276191 144.363ZM154.999 313.546C123.294 297.391 86.4708 294.493 52.6292 305.489C18.7875 316.485 -9.29996 340.474 -25.4544 372.179C-41.6089 403.884 -44.5069 440.707 -33.5111 474.549C-22.5153 508.39 1.4737 536.478 33.1786 552.632C64.8835 568.787 101.707 571.685 135.549 560.689C169.39 549.693 197.478 525.704 213.632 493.999C229.787 462.295 232.685 425.471 221.689 391.629C210.693 357.788 186.704 329.7 154.999 313.546ZM130.635 361.363C149.658 371.056 164.052 387.908 170.649 408.213C177.247 428.518 175.508 450.612 165.815 469.635C156.122 488.658 139.27 503.052 118.965 509.649C98.6599 516.247 76.5656 514.508 57.5427 504.815C38.5198 495.122 24.1264 478.27 17.5289 457.965C10.9314 437.66 12.6703 415.566 22.3629 396.543C32.0556 377.52 48.9081 363.126 69.2131 356.529C89.5181 349.931 111.612 351.67 130.635 361.363Z" fill="white"/>
</g>
<defs>
<clipPath id="clip0_160_72">
<rect width="644" height="644" fill="white" transform="translate(-46.6301) rotate(27)"/>
</clipPath>
</defs>
</svg>
